{
	"asset":{
		"generator":"Khronos glTF Blender I/O v3.6.27",
		"version":"2.0"
	},
	"extensionsUsed":[
		"KHR_materials_specular",
		"KHR_materials_ior",
		"KHR_materials_emissive_strength"
	],
	"scene":0,
	"scenes":[
		{
			"name":"Scene",
			"nodes":[
				0,
				1,
				2,
				3,
				4,
				5,
				6,
				7,
				8,
				9,
				10,
				11,
				12,
				13,
				14
			]
		}
	],
	"nodes":[
		{
			"camera":0,
			"name":"Camera",
			"rotation":[
				0,
				-1,
				0,
				5.3968395067282e-15
			],
			"translation":[
				0,
				1.229428768157959,
				-28.756423950195312
			]
		},
		{
			"mesh":0,
			"name":"lightProxy_01",
			"translation":[
				0,
				2.2220418453216553,
				-0.32566267251968384
			]
		},
		{
			"mesh":1,
			"name":"lightProxy_02",
			"translation":[
				0.46447843313217163,
				0.44263148307800293,
				-1.213608741760254
			]
		},
		{
			"mesh":2,
			"name":"lightProxy_03",
			"translation":[
				0.1455259621143341,
				2.6888680458068848,
				6.107712268829346
			]
		},
		{
			"mesh":3,
			"name":"chairBase",
			"translation":[
				-1.625483512878418,
				0,
				0
			]
		},
		{
			"mesh":4,
			"name":"chairUp",
			"rotation":[
				0,
				0.3186584711074829,
				0,
				0.947869598865509
			],
			"translation":[
				-1.625483512878418,
				0.5322962999343872,
				0
			]
		},
		{
			"mesh":5,
			"name":"monitorFrame",
			"rotation":[
				0,
				-1,
				0,
				7.549790126404332e-08
			],
			"translation":[
				0.4287966787815094,
				1.2208728790283203,
				0.7052990198135376
			]
		},
		{
			"mesh":6,
			"name":"monitorScreen",
			"rotation":[
				0,
				-1,
				0,
				7.549790126404332e-08
			],
			"translation":[
				0.4287966787815094,
				1.2208728790283203,
				0.7052990198135376
			]
		},
		{
			"mesh":7,
			"name":"sky",
			"rotation":[
				0.7071068286895752,
				0,
				0,
				0.7071068286895752
			],
			"translation":[
				-9.317916870117188,
				4.153739929199219,
				96.24665832519531
			]
		},
		{
			"mesh":8,
			"name":"sun",
			"translation":[
				0,
				6.5,
				79.9395523071289
			]
		},
		{
			"mesh":9,
			"name":"desk",
			"rotation":[
				0.7071068286895752,
				0,
				0,
				0.7071068286895752
			]
		},
		{
			"mesh":10,
			"name":"window",
			"translation":[
				0.13955959677696228,
				2.0111207962036133,
				4.658856391906738
			]
		},
		{
			"mesh":11,
			"name":"house",
			"rotation":[
				0.7071068286895752,
				0,
				0,
				0.7071068286895752
			]
		},
		{
			"mesh":12,
			"name":"building_01",
			"rotation":[
				0.7071068286895752,
				0,
				0,
				0.7071068286895752
			]
		},
		{
			"mesh":13,
			"name":"building_02",
			"rotation":[
				0.7071068286895752,
				0,
				0,
				0.7071068286895752
			],
			"translation":[
				0,
				-1.4090627431869507,
				0
			]
		}
	],
	"cameras":[
		{
			"name":"Camera.001",
			"perspective":{
				"aspectRatio":1.7777777777777777,
				"yfov":0.39959652046304894,
				"zfar":1000,
				"znear":0.10000000149011612
			},
			"type":"perspective"
		}
	],
	"animations":[
		{
			"channels":[
				{
					"sampler":0,
					"target":{
						"node":0,
						"path":"translation"
					}
				}
			],
			"name":"CameraAction",
			"samplers":[
				{
					"input":53,
					"interpolation":"LINEAR",
					"output":54
				}
			]
		},
		{
			"channels":[
				{
					"sampler":0,
					"target":{
						"node":4,
						"path":"translation"
					}
				},
				{
					"sampler":1,
					"target":{
						"node":4,
						"path":"rotation"
					}
				},
				{
					"sampler":2,
					"target":{
						"node":4,
						"path":"scale"
					}
				}
			],
			"name":"chairBaseAction",
			"samplers":[
				{
					"input":55,
					"interpolation":"LINEAR",
					"output":56
				},
				{
					"input":57,
					"interpolation":"STEP",
					"output":58
				},
				{
					"input":57,
					"interpolation":"STEP",
					"output":59
				}
			]
		},
		{
			"channels":[
				{
					"sampler":0,
					"target":{
						"node":5,
						"path":"translation"
					}
				},
				{
					"sampler":1,
					"target":{
						"node":5,
						"path":"rotation"
					}
				},
				{
					"sampler":2,
					"target":{
						"node":5,
						"path":"scale"
					}
				}
			],
			"name":"chairUpAction",
			"samplers":[
				{
					"input":55,
					"interpolation":"LINEAR",
					"output":60
				},
				{
					"input":55,
					"interpolation":"LINEAR",
					"output":61
				},
				{
					"input":57,
					"interpolation":"STEP",
					"output":62
				}
			]
		}
	],
	"materials":[
		{
			"doubleSided":true,
			"extensions":{
				"KHR_materials_specular":{
					"specularColorFactor":[
						0,
						0,
						0
					]
				},
				"KHR_materials_ior":{
					"ior":1.4500000476837158
				}
			},
			"name":"chair",
			"pbrMetallicRoughness":{
				"baseColorTexture":{
					"index":0
				},
				"metallicFactor":0,
				"metallicRoughnessTexture":{
					"index":1
				}
			}
		},
		{
			"doubleSided":true,
			"emissiveFactor":[
				1,
				0.985423743724823,
				0.6165658235549927
			],
			"extensions":{
				"KHR_materials_emissive_strength":{
					"emissiveStrength":2
				}
			},
			"name":"monitor_screen",
			"pbrMetallicRoughness":{
				"baseColorFactor":[
					0,
					0,
					0,
					1
				]
			}
		},
		{
			"doubleSided":true,
			"emissiveFactor":[
				0.1642267405986786,
				0.1948574036359787,
				0.6032224893569946
			],
			"name":"sky",
			"pbrMetallicRoughness":{
				"baseColorFactor":[
					0,
					0,
					0,
					1
				]
			}
		},
		{
			"doubleSided":true,
			"emissiveFactor":[
				1,
				0.4504251778125763,
				0.38110092282295227
			],
			"name":"sunParticles",
			"pbrMetallicRoughness":{
				"baseColorFactor":[
					0,
					0,
					0,
					1
				]
			}
		},
		{
			"doubleSided":true,
			"extensions":{
				"KHR_materials_specular":{
					"specularColorFactor":[
						0,
						0,
						0
					]
				},
				"KHR_materials_ior":{
					"ior":1.4500000476837158
				}
			},
			"name":"desk",
			"pbrMetallicRoughness":{
				"baseColorTexture":{
					"index":2
				},
				"metallicFactor":0,
				"metallicRoughnessTexture":{
					"index":3
				}
			}
		},
		{
			"doubleSided":true,
			"name":"house",
			"pbrMetallicRoughness":{
				"baseColorTexture":{
					"index":4
				},
				"metallicFactor":0,
				"metallicRoughnessTexture":{
					"index":5
				}
			}
		},
		{
			"doubleSided":true,
			"extensions":{
				"KHR_materials_specular":{
					"specularColorFactor":[
						0,
						0,
						0
					]
				},
				"KHR_materials_ior":{
					"ior":1.4500000476837158
				}
			},
			"name":"building",
			"pbrMetallicRoughness":{
				"baseColorTexture":{
					"index":6
				},
				"metallicFactor":0,
				"metallicRoughnessTexture":{
					"index":7
				}
			}
		}
	],
	"meshes":[
		{
			"name":"Icosphere",
			"primitives":[
				{
					"attributes":{
						"POSITION":0,
						"NORMAL":1,
						"TEXCOORD_0":2
					},
					"indices":3
				}
			]
		},
		{
			"name":"Icosphere.001",
			"primitives":[
				{
					"attributes":{
						"POSITION":4,
						"NORMAL":5,
						"TEXCOORD_0":6
					},
					"indices":3
				}
			]
		},
		{
			"name":"Icosphere.002",
			"primitives":[
				{
					"attributes":{
						"POSITION":7,
						"NORMAL":8,
						"TEXCOORD_0":9
					},
					"indices":3
				}
			]
		},
		{
			"name":"chairBase",
			"primitives":[
				{
					"attributes":{
						"POSITION":10,
						"NORMAL":11,
						"TEXCOORD_0":12
					},
					"indices":13,
					"material":0
				}
			]
		},
		{
			"name":"chairUp",
			"primitives":[
				{
					"attributes":{
						"POSITION":14,
						"NORMAL":15,
						"TEXCOORD_0":16
					},
					"indices":17,
					"material":0
				}
			]
		},
		{
			"name":"monitorFrame",
			"primitives":[
				{
					"attributes":{
						"POSITION":18,
						"NORMAL":19,
						"TEXCOORD_0":20
					},
					"indices":21
				}
			]
		},
		{
			"name":"monitorScreen",
			"primitives":[
				{
					"attributes":{
						"POSITION":22,
						"NORMAL":23,
						"TEXCOORD_0":24
					},
					"indices":25,
					"material":1
				}
			]
		},
		{
			"name":"sky",
			"primitives":[
				{
					"attributes":{
						"POSITION":26,
						"NORMAL":27,
						"TEXCOORD_0":28
					},
					"indices":29,
					"material":2
				}
			]
		},
		{
			"name":"sun",
			"primitives":[
				{
					"attributes":{
						"POSITION":30,
						"NORMAL":31,
						"TEXCOORD_0":32
					},
					"indices":33,
					"material":3
				}
			]
		},
		{
			"name":"desk",
			"primitives":[
				{
					"attributes":{
						"POSITION":34,
						"NORMAL":35,
						"TEXCOORD_0":36
					},
					"indices":37,
					"material":4
				}
			]
		},
		{
			"name":"window",
			"primitives":[
				{
					"attributes":{
						"POSITION":38,
						"NORMAL":39,
						"TEXCOORD_0":40
					},
					"indices":41
				}
			]
		},
		{
			"name":"house",
			"primitives":[
				{
					"attributes":{
						"POSITION":42,
						"NORMAL":43,
						"TEXCOORD_0":44
					},
					"indices":45,
					"material":5
				}
			]
		},
		{
			"name":"building_01",
			"primitives":[
				{
					"attributes":{
						"POSITION":46,
						"NORMAL":47,
						"TEXCOORD_0":48
					},
					"indices":49,
					"material":6
				}
			]
		},
		{
			"name":"building_02",
			"primitives":[
				{
					"attributes":{
						"POSITION":50,
						"NORMAL":51,
						"TEXCOORD_0":52
					},
					"indices":49,
					"material":6
				}
			]
		}
	],
	"textures":[
		{
			"sampler":0,
			"source":0
		},
		{
			"sampler":0,
			"source":1
		},
		{
			"sampler":0,
			"source":2
		},
		{
			"sampler":0,
			"source":3
		},
		{
			"sampler":0,
			"source":4
		},
		{
			"sampler":0,
			"source":5
		},
		{
			"sampler":0,
			"source":6
		},
		{
			"sampler":0,
			"source":7
		}
	],
	"images":[
		{
			"mimeType":"image/jpeg",
			"name":"chair_Base_color",
			"uri":"chair_Base_color.jpg"
		},
		{
			"mimeType":"image/png",
			"name":"chair_Roughness",
			"uri":"chair_Roughness.png"
		},
		{
			"mimeType":"image/jpeg",
			"name":"desk_Base_color",
			"uri":"desk_Base_color.jpg"
		},
		{
			"mimeType":"image/png",
			"name":"desk_Roughness",
			"uri":"desk_Roughness.png"
		},
		{
			"mimeType":"image/jpeg",
			"name":"house_Base_color",
			"uri":"house_Base_color.jpg"
		},
		{
			"mimeType":"image/png",
			"name":"house_Roughness",
			"uri":"house_Roughness.png"
		},
		{
			"mimeType":"image/jpeg",
			"name":"building_Base_color",
			"uri":"building_Base_color.jpg"
		},
		{
			"mimeType":"image/png",
			"name":"building_Roughness",
			"uri":"building_Roughness.png"
		}
	],
	"accessors":[
		{
			"bufferView":0,
			"componentType":5126,
			"count":60,
			"max":[
				0.044721249490976334,
				0.05000000074505806,
				0.04253200441598892
			],
			"min":[
				-0.044721249490976334,
				-0.05000000074505806,
				-0.04253200441598892
			],
			"type":"VEC3"
		},
		{
			"bufferView":1,
			"componentType":5126,
			"count":60,
			"type":"VEC3"
		},
		{
			"bufferView":2,
			"componentType":5126,
			"count":60,
			"type":"VEC2"
		},
		{
			"bufferView":3,
			"componentType":5123,
			"count":60,
			"type":"SCALAR"
		},
		{
			"bufferView":4,
			"componentType":5126,
			"count":60,
			"max":[
				0.044721249490976334,
				0.05000000074505806,
				0.04253200441598892
			],
			"min":[
				-0.044721249490976334,
				-0.05000000074505806,
				-0.04253200441598892
			],
			"type":"VEC3"
		},
		{
			"bufferView":5,
			"componentType":5126,
			"count":60,
			"type":"VEC3"
		},
		{
			"bufferView":6,
			"componentType":5126,
			"count":60,
			"type":"VEC2"
		},
		{
			"bufferView":7,
			"componentType":5126,
			"count":60,
			"max":[
				0.044721249490976334,
				0.05000000074505806,
				0.04253200441598892
			],
			"min":[
				-0.044721249490976334,
				-0.05000000074505806,
				-0.04253200441598892
			],
			"type":"VEC3"
		},
		{
			"bufferView":8,
			"componentType":5126,
			"count":60,
			"type":"VEC3"
		},
		{
			"bufferView":9,
			"componentType":5126,
			"count":60,
			"type":"VEC2"
		},
		{
			"bufferView":10,
			"componentType":5126,
			"count":6292,
			"max":[
				0.30227500200271606,
				0.5322964191436768,
				0.2714197337627411
			],
			"min":[
				-0.34810906648635864,
				0,
				-0.327678382396698
			],
			"type":"VEC3"
		},
		{
			"bufferView":11,
			"componentType":5126,
			"count":6292,
			"type":"VEC3"
		},
		{
			"bufferView":12,
			"componentType":5126,
			"count":6292,
			"type":"VEC2"
		},
		{
			"bufferView":13,
			"componentType":5123,
			"count":26970,
			"type":"SCALAR"
		},
		{
			"bufferView":14,
			"componentType":5126,
			"count":4824,
			"max":[
				0.2881266474723816,
				0.5464650392532349,
				0.25383907556533813
			],
			"min":[
				-0.259848952293396,
				-0.09537583589553833,
				-0.3333912789821625
			],
			"type":"VEC3"
		},
		{
			"bufferView":15,
			"componentType":5126,
			"count":4824,
			"type":"VEC3"
		},
		{
			"bufferView":16,
			"componentType":5126,
			"count":4824,
			"type":"VEC2"
		},
		{
			"bufferView":17,
			"componentType":5123,
			"count":23712,
			"type":"SCALAR"
		},
		{
			"bufferView":18,
			"componentType":5126,
			"count":600,
			"max":[
				0.402150422334671,
				0.23694391548633575,
				0.03975411504507065
			],
			"min":[
				-0.402150422334671,
				-0.3382100462913513,
				-0.12914599478244781
			],
			"type":"VEC3"
		},
		{
			"bufferView":19,
			"componentType":5126,
			"count":600,
			"type":"VEC3"
		},
		{
			"bufferView":20,
			"componentType":5126,
			"count":600,
			"type":"VEC2"
		},
		{
			"bufferView":21,
			"componentType":5123,
			"count":1236,
			"type":"SCALAR"
		},
		{
			"bufferView":22,
			"componentType":5126,
			"count":35,
			"max":[
				0.38952118158340454,
				0.22431468963623047,
				0.006918175145983696
			],
			"min":[
				-0.38952118158340454,
				-0.22431468963623047,
				0.006918175145983696
			],
			"type":"VEC3"
		},
		{
			"bufferView":23,
			"componentType":5126,
			"count":35,
			"type":"VEC3"
		},
		{
			"bufferView":24,
			"componentType":5126,
			"count":35,
			"type":"VEC2"
		},
		{
			"bufferView":25,
			"componentType":5123,
			"count":144,
			"type":"SCALAR"
		},
		{
			"bufferView":26,
			"componentType":5126,
			"count":4,
			"max":[
				299.2677307128906,
				0,
				181.7623291015625
			],
			"min":[
				-299.2677307128906,
				0,
				-181.7623291015625
			],
			"type":"VEC3"
		},
		{
			"bufferView":27,
			"componentType":5126,
			"count":4,
			"type":"VEC3"
		},
		{
			"bufferView":28,
			"componentType":5126,
			"count":4,
			"type":"VEC2"
		},
		{
			"bufferView":29,
			"componentType":5123,
			"count":6,
			"type":"SCALAR"
		},
		{
			"bufferView":30,
			"componentType":5126,
			"count":2141,
			"max":[
				2.0854241847991943,
				2.1072778701782227,
				2.0854239463806152
			],
			"min":[
				-2.085423469543457,
				-2.1072778701782227,
				-2.0854239463806152
			],
			"type":"VEC3"
		},
		{
			"bufferView":31,
			"componentType":5126,
			"count":2141,
			"type":"VEC3"
		},
		{
			"bufferView":32,
			"componentType":5126,
			"count":2141,
			"type":"VEC2"
		},
		{
			"bufferView":33,
			"componentType":5123,
			"count":11904,
			"type":"SCALAR"
		},
		{
			"bufferView":34,
			"componentType":5126,
			"count":5605,
			"max":[
				1.1008119583129883,
				0.9480130076408386,
				-0.00021699999342672527
			],
			"min":[
				-0.2967270016670227,
				0.3465479910373688,
				-0.8909779787063599
			],
			"type":"VEC3"
		},
		{
			"bufferView":35,
			"componentType":5126,
			"count":5605,
			"type":"VEC3"
		},
		{
			"bufferView":36,
			"componentType":5126,
			"count":5605,
			"type":"VEC2"
		},
		{
			"bufferView":37,
			"componentType":5123,
			"count":19812,
			"type":"SCALAR"
		},
		{
			"bufferView":38,
			"componentType":5126,
			"count":552,
			"max":[
				0.5157696604728699,
				0.7682734727859497,
				0.036515455693006516
			],
			"min":[
				-0.5160254240036011,
				-0.7682793140411377,
				-0.03611734136939049
			],
			"type":"VEC3"
		},
		{
			"bufferView":39,
			"componentType":5126,
			"count":552,
			"type":"VEC3"
		},
		{
			"bufferView":40,
			"componentType":5126,
			"count":552,
			"type":"VEC2"
		},
		{
			"bufferView":41,
			"componentType":5123,
			"count":1644,
			"type":"SCALAR"
		},
		{
			"bufferView":42,
			"componentType":5126,
			"count":112,
			"max":[
				21.337709426879883,
				4.685482978820801,
				12.053489685058594
			],
			"min":[
				-21.975629806518555,
				-30.900720596313477,
				-19.74197006225586
			],
			"type":"VEC3"
		},
		{
			"bufferView":43,
			"componentType":5126,
			"count":112,
			"type":"VEC3"
		},
		{
			"bufferView":44,
			"componentType":5126,
			"count":112,
			"type":"VEC2"
		},
		{
			"bufferView":45,
			"componentType":5123,
			"count":264,
			"type":"SCALAR"
		},
		{
			"bufferView":46,
			"componentType":5126,
			"count":8384,
			"max":[
				1.8381140232086182,
				8.647398948669434,
				-0.8221840262413025
			],
			"min":[
				0.2399590015411377,
				7.049242973327637,
				-2.298959970474243
			],
			"type":"VEC3"
		},
		{
			"bufferView":47,
			"componentType":5126,
			"count":8384,
			"type":"VEC3"
		},
		{
			"bufferView":48,
			"componentType":5126,
			"count":8384,
			"type":"VEC2"
		},
		{
			"bufferView":49,
			"componentType":5123,
			"count":14772,
			"type":"SCALAR"
		},
		{
			"bufferView":50,
			"componentType":5126,
			"count":8384,
			"max":[
				1.8381140232086182,
				8.647398948669434,
				-0.8221840262413025
			],
			"min":[
				0.2399590015411377,
				7.049242973327637,
				-2.298959970474243
			],
			"type":"VEC3"
		},
		{
			"bufferView":51,
			"componentType":5126,
			"count":8384,
			"type":"VEC3"
		},
		{
			"bufferView":52,
			"componentType":5126,
			"count":8384,
			"type":"VEC2"
		},
		{
			"bufferView":53,
			"componentType":5126,
			"count":144,
			"max":[
				6
			],
			"min":[
				0.041666666666666664
			],
			"type":"SCALAR"
		},
		{
			"bufferView":54,
			"componentType":5126,
			"count":144,
			"type":"VEC3"
		},
		{
			"bufferView":55,
			"componentType":5126,
			"count":201,
			"max":[
				8.333333333333334
			],
			"min":[
				0
			],
			"type":"SCALAR"
		},
		{
			"bufferView":56,
			"componentType":5126,
			"count":201,
			"type":"VEC3"
		},
		{
			"bufferView":57,
			"componentType":5126,
			"count":2,
			"max":[
				8.333333333333334
			],
			"min":[
				0
			],
			"type":"SCALAR"
		},
		{
			"bufferView":58,
			"componentType":5126,
			"count":2,
			"type":"VEC4"
		},
		{
			"bufferView":59,
			"componentType":5126,
			"count":2,
			"type":"VEC3"
		},
		{
			"bufferView":60,
			"componentType":5126,
			"count":201,
			"type":"VEC3"
		},
		{
			"bufferView":61,
			"componentType":5126,
			"count":201,
			"type":"VEC4"
		},
		{
			"bufferView":62,
			"componentType":5126,
			"count":2,
			"type":"VEC3"
		}
	],
	"bufferViews":[
		{
			"buffer":0,
			"byteLength":720,
			"byteOffset":0,
			"target":34962
		},
		{
			"buffer":0,
			"byteLength":720,
			"byteOffset":720,
			"target":34962
		},
		{
			"buffer":0,
			"byteLength":480,
			"byteOffset":1440,
			"target":34962
		},
		{
			"buffer":0,
			"byteLength":120,
			"byteOffset":1920,
			"target":34963
		},
		{
			"buffer":0,
			"byteLength":720,
			"byteOffset":2040,
			"target":34962
		},
		{
			"buffer":0,
			"byteLength":720,
			"byteOffset":2760,
			"target":34962
		},
		{
			"buffer":0,
			"byteLength":480,
			"byteOffset":3480,
			"target":34962
		},
		{
			"buffer":0,
			"byteLength":720,
			"byteOffset":3960,
			"target":34962
		},
		{
			"buffer":0,
			"byteLength":720,
			"byteOffset":4680,
			"target":34962
		},
		{
			"buffer":0,
			"byteLength":480,
			"byteOffset":5400,
			"target":34962
		},
		{
			"buffer":0,
			"byteLength":75504,
			"byteOffset":5880,
			"target":34962
		},
		{
			"buffer":0,
			"byteLength":75504,
			"byteOffset":81384,
			"target":34962
		},
		{
			"buffer":0,
			"byteLength":50336,
			"byteOffset":156888,
			"target":34962
		},
		{
			"buffer":0,
			"byteLength":53940,
			"byteOffset":207224,
			"target":34963
		},
		{
			"buffer":0,
			"byteLength":57888,
			"byteOffset":261164,
			"target":34962
		},
		{
			"buffer":0,
			"byteLength":57888,
			"byteOffset":319052,
			"target":34962
		},
		{
			"buffer":0,
			"byteLength":38592,
			"byteOffset":376940,
			"target":34962
		},
		{
			"buffer":0,
			"byteLength":47424,
			"byteOffset":415532,
			"target":34963
		},
		{
			"buffer":0,
			"byteLength":7200,
			"byteOffset":462956,
			"target":34962
		},
		{
			"buffer":0,
			"byteLength":7200,
			"byteOffset":470156,
			"target":34962
		},
		{
			"buffer":0,
			"byteLength":4800,
			"byteOffset":477356,
			"target":34962
		},
		{
			"buffer":0,
			"byteLength":2472,
			"byteOffset":482156,
			"target":34963
		},
		{
			"buffer":0,
			"byteLength":420,
			"byteOffset":484628,
			"target":34962
		},
		{
			"buffer":0,
			"byteLength":420,
			"byteOffset":485048,
			"target":34962
		},
		{
			"buffer":0,
			"byteLength":280,
			"byteOffset":485468,
			"target":34962
		},
		{
			"buffer":0,
			"byteLength":288,
			"byteOffset":485748,
			"target":34963
		},
		{
			"buffer":0,
			"byteLength":48,
			"byteOffset":486036,
			"target":34962
		},
		{
			"buffer":0,
			"byteLength":48,
			"byteOffset":486084,
			"target":34962
		},
		{
			"buffer":0,
			"byteLength":32,
			"byteOffset":486132,
			"target":34962
		},
		{
			"buffer":0,
			"byteLength":12,
			"byteOffset":486164,
			"target":34963
		},
		{
			"buffer":0,
			"byteLength":25692,
			"byteOffset":486176,
			"target":34962
		},
		{
			"buffer":0,
			"byteLength":25692,
			"byteOffset":511868,
			"target":34962
		},
		{
			"buffer":0,
			"byteLength":17128,
			"byteOffset":537560,
			"target":34962
		},
		{
			"buffer":0,
			"byteLength":23808,
			"byteOffset":554688,
			"target":34963
		},
		{
			"buffer":0,
			"byteLength":67260,
			"byteOffset":578496,
			"target":34962
		},
		{
			"buffer":0,
			"byteLength":67260,
			"byteOffset":645756,
			"target":34962
		},
		{
			"buffer":0,
			"byteLength":44840,
			"byteOffset":713016,
			"target":34962
		},
		{
			"buffer":0,
			"byteLength":39624,
			"byteOffset":757856,
			"target":34963
		},
		{
			"buffer":0,
			"byteLength":6624,
			"byteOffset":797480,
			"target":34962
		},
		{
			"buffer":0,
			"byteLength":6624,
			"byteOffset":804104,
			"target":34962
		},
		{
			"buffer":0,
			"byteLength":4416,
			"byteOffset":810728,
			"target":34962
		},
		{
			"buffer":0,
			"byteLength":3288,
			"byteOffset":815144,
			"target":34963
		},
		{
			"buffer":0,
			"byteLength":1344,
			"byteOffset":818432,
			"target":34962
		},
		{
			"buffer":0,
			"byteLength":1344,
			"byteOffset":819776,
			"target":34962
		},
		{
			"buffer":0,
			"byteLength":896,
			"byteOffset":821120,
			"target":34962
		},
		{
			"buffer":0,
			"byteLength":528,
			"byteOffset":822016,
			"target":34963
		},
		{
			"buffer":0,
			"byteLength":100608,
			"byteOffset":822544,
			"target":34962
		},
		{
			"buffer":0,
			"byteLength":100608,
			"byteOffset":923152,
			"target":34962
		},
		{
			"buffer":0,
			"byteLength":67072,
			"byteOffset":1023760,
			"target":34962
		},
		{
			"buffer":0,
			"byteLength":29544,
			"byteOffset":1090832,
			"target":34963
		},
		{
			"buffer":0,
			"byteLength":100608,
			"byteOffset":1120376,
			"target":34962
		},
		{
			"buffer":0,
			"byteLength":100608,
			"byteOffset":1220984,
			"target":34962
		},
		{
			"buffer":0,
			"byteLength":67072,
			"byteOffset":1321592,
			"target":34962
		},
		{
			"buffer":0,
			"byteLength":576,
			"byteOffset":1388664
		},
		{
			"buffer":0,
			"byteLength":1728,
			"byteOffset":1389240
		},
		{
			"buffer":0,
			"byteLength":804,
			"byteOffset":1390968
		},
		{
			"buffer":0,
			"byteLength":2412,
			"byteOffset":1391772
		},
		{
			"buffer":0,
			"byteLength":8,
			"byteOffset":1394184
		},
		{
			"buffer":0,
			"byteLength":32,
			"byteOffset":1394192
		},
		{
			"buffer":0,
			"byteLength":24,
			"byteOffset":1394224
		},
		{
			"buffer":0,
			"byteLength":2412,
			"byteOffset":1394248
		},
		{
			"buffer":0,
			"byteLength":3216,
			"byteOffset":1396660
		},
		{
			"buffer":0,
			"byteLength":24,
			"byteOffset":1399876
		}
	],
	"samplers":[
		{
			"magFilter":9729,
			"minFilter":9987
		}
	],
	"buffers":[
		{
			"byteLength":1399900,
			"uri":"myhome_export.bin"
		}
	]
}
