{
	"asset":{
		"generator":"Khronos glTF Blender I/O v3.6.27",
		"version":"2.0"
	},
	"extensionsUsed":[
		"KHR_materials_specular",
		"KHR_materials_ior",
		"KHR_materials_emissive_strength"
	],
	"scene":0,
	"scenes":[
		{
			"name":"Scene",
			"nodes":[
				0,
				14
			]
		}
	],
	"nodes":[
		{
			"camera":0,
			"name":"Camera",
			"rotation":[
				0,
				-1,
				0,
				5.3968395067282e-15
			],
			"translation":[
				0,
				1.2294299602508545,
				-26.52429962158203
			]
		},
		{
			"mesh":0,
			"name":"building_01"
		},
		{
			"mesh":1,
			"name":"building_02",
			"translation":[
				0,
				0,
				1.4090627431869507
			]
		},
		{
			"mesh":2,
			"name":"chairUp",
			"rotation":[
				0,
				0.3186584711074829,
				0,
				0.9478697180747986
			],
			"translation":[
				0,
				0.5322962999343872,
				0
			]
		},
		{
			"children":[
				3
			],
			"mesh":3,
			"name":"chairBase",
			"rotation":[
				-0.7071068286895752,
				0,
				0,
				0.7071068286895752
			],
			"translation":[
				-1.625483512878418,
				0,
				0
			]
		},
		{
			"mesh":4,
			"name":"desk"
		},
		{
			"mesh":5,
			"name":"lightProxy_01",
			"rotation":[
				-0.7071068286895752,
				0,
				0,
				0.7071068286895752
			],
			"translation":[
				0,
				-0.3256624937057495,
				-2.2220418453216553
			]
		},
		{
			"mesh":6,
			"name":"lightProxy_02",
			"rotation":[
				-0.7071068286895752,
				0,
				0,
				0.7071068286895752
			],
			"translation":[
				0.46447843313217163,
				-1.213608741760254,
				-0.4426315724849701
			]
		},
		{
			"mesh":7,
			"name":"lightProxy_03",
			"rotation":[
				-0.7071068286895752,
				0,
				0,
				0.7071068286895752
			],
			"translation":[
				0.1455259621143341,
				6.107712268829346,
				-2.6888675689697266
			]
		},
		{
			"mesh":8,
			"name":"monitorFrame",
			"rotation":[
				0,
				-0.70710688829422,
				0.7071066498756409,
				5.338507236274381e-08
			],
			"translation":[
				0.4287967085838318,
				0.7052991390228271,
				-1.2208728790283203
			]
		},
		{
			"mesh":9,
			"name":"monitorScreen",
			"rotation":[
				0,
				-0.70710688829422,
				0.7071066498756409,
				5.338507236274381e-08
			],
			"translation":[
				0.4287967085838318,
				0.7052991390228271,
				-1.2208728790283203
			]
		},
		{
			"mesh":10,
			"name":"sky",
			"translation":[
				-9.317916870117188,
				96.24665832519531,
				-4.153732776641846
			]
		},
		{
			"mesh":11,
			"name":"sun",
			"rotation":[
				-0.7071068286895752,
				0,
				0,
				0.7071068286895752
			],
			"translation":[
				0,
				79.9395523071289,
				-6.499993801116943
			]
		},
		{
			"mesh":12,
			"name":"window",
			"rotation":[
				-0.7071068286895752,
				0,
				0,
				0.7071068286895752
			],
			"translation":[
				0.13955959677696228,
				4.658856391906738,
				-2.011120557785034
			]
		},
		{
			"children":[
				1,
				2,
				4,
				5,
				6,
				7,
				8,
				9,
				10,
				11,
				12,
				13
			],
			"mesh":13,
			"name":"house",
			"rotation":[
				0.7071068286895752,
				0,
				0,
				0.7071068286895752
			],
			"translation":[
				0.08906222134828568,
				0,
				0
			]
		}
	],
	"cameras":[
		{
			"name":"Camera.001",
			"perspective":{
				"aspectRatio":1.7777777777777777,
				"yfov":0.39959652046304894,
				"zfar":1000,
				"znear":0.10000000149011612
			},
			"type":"perspective"
		}
	],
	"animations":[
		{
			"channels":[
				{
					"sampler":0,
					"target":{
						"node":14,
						"path":"translation"
					}
				}
			],
			"name":"houseAction",
			"samplers":[
				{
					"input":53,
					"interpolation":"LINEAR",
					"output":54
				}
			]
		},
		{
			"channels":[
				{
					"sampler":0,
					"target":{
						"node":4,
						"path":"translation"
					}
				}
			],
			"name":"SwivelChair_baseAction",
			"samplers":[
				{
					"input":53,
					"interpolation":"LINEAR",
					"output":55
				}
			]
		},
		{
			"channels":[
				{
					"sampler":0,
					"target":{
						"node":3,
						"path":"rotation"
					}
				}
			],
			"name":"SwivelChair_upAction",
			"samplers":[
				{
					"input":53,
					"interpolation":"LINEAR",
					"output":56
				}
			]
		}
	],
	"materials":[
		{
			"doubleSided":true,
			"extensions":{
				"KHR_materials_specular":{
					"specularColorFactor":[
						0,
						0,
						0
					]
				},
				"KHR_materials_ior":{
					"ior":1.4500000476837158
				}
			},
			"name":"building",
			"pbrMetallicRoughness":{
				"baseColorTexture":{
					"index":0
				},
				"metallicFactor":0,
				"metallicRoughnessTexture":{
					"index":1
				}
			}
		},
		{
			"doubleSided":true,
			"extensions":{
				"KHR_materials_specular":{
					"specularColorFactor":[
						0,
						0,
						0
					]
				},
				"KHR_materials_ior":{
					"ior":1.4500000476837158
				}
			},
			"name":"chair",
			"pbrMetallicRoughness":{
				"baseColorTexture":{
					"index":2
				},
				"metallicFactor":0,
				"metallicRoughnessTexture":{
					"index":3
				}
			}
		},
		{
			"doubleSided":true,
			"extensions":{
				"KHR_materials_specular":{
					"specularColorFactor":[
						0,
						0,
						0
					]
				},
				"KHR_materials_ior":{
					"ior":1.4500000476837158
				}
			},
			"name":"desk",
			"pbrMetallicRoughness":{
				"baseColorTexture":{
					"index":4
				},
				"metallicFactor":0,
				"metallicRoughnessTexture":{
					"index":5
				}
			}
		},
		{
			"doubleSided":true,
			"emissiveFactor":[
				1,
				0.985423743724823,
				0.6165658235549927
			],
			"extensions":{
				"KHR_materials_emissive_strength":{
					"emissiveStrength":2
				}
			},
			"name":"monitor_screen",
			"pbrMetallicRoughness":{
				"baseColorFactor":[
					0,
					0,
					0,
					1
				]
			}
		},
		{
			"doubleSided":true,
			"emissiveFactor":[
				0.1642267405986786,
				0.1948574036359787,
				0.6032224893569946
			],
			"name":"sky",
			"pbrMetallicRoughness":{
				"baseColorFactor":[
					0,
					0,
					0,
					1
				]
			}
		},
		{
			"doubleSided":true,
			"emissiveFactor":[
				1,
				0.4504251778125763,
				0.38110092282295227
			],
			"name":"sunParticles",
			"pbrMetallicRoughness":{
				"baseColorFactor":[
					0,
					0,
					0,
					1
				]
			}
		},
		{
			"doubleSided":true,
			"name":"house",
			"pbrMetallicRoughness":{
				"baseColorTexture":{
					"index":6
				},
				"metallicFactor":0,
				"metallicRoughnessTexture":{
					"index":7
				}
			}
		}
	],
	"meshes":[
		{
			"name":"building_01",
			"primitives":[
				{
					"attributes":{
						"POSITION":0,
						"NORMAL":1,
						"TEXCOORD_0":2
					},
					"indices":3,
					"material":0
				}
			]
		},
		{
			"name":"building_02",
			"primitives":[
				{
					"attributes":{
						"POSITION":4,
						"NORMAL":5,
						"TEXCOORD_0":6
					},
					"indices":3,
					"material":0
				}
			]
		},
		{
			"name":"chairUp",
			"primitives":[
				{
					"attributes":{
						"POSITION":7,
						"NORMAL":8,
						"TEXCOORD_0":9
					},
					"indices":10,
					"material":1
				}
			]
		},
		{
			"name":"chairBase",
			"primitives":[
				{
					"attributes":{
						"POSITION":11,
						"NORMAL":12,
						"TEXCOORD_0":13
					},
					"indices":14,
					"material":1
				}
			]
		},
		{
			"name":"desk",
			"primitives":[
				{
					"attributes":{
						"POSITION":15,
						"NORMAL":16,
						"TEXCOORD_0":17
					},
					"indices":18,
					"material":2
				}
			]
		},
		{
			"name":"Icosphere",
			"primitives":[
				{
					"attributes":{
						"POSITION":19,
						"NORMAL":20,
						"TEXCOORD_0":21
					},
					"indices":22
				}
			]
		},
		{
			"name":"Icosphere.001",
			"primitives":[
				{
					"attributes":{
						"POSITION":23,
						"NORMAL":24,
						"TEXCOORD_0":25
					},
					"indices":22
				}
			]
		},
		{
			"name":"Icosphere.002",
			"primitives":[
				{
					"attributes":{
						"POSITION":26,
						"NORMAL":27,
						"TEXCOORD_0":28
					},
					"indices":22
				}
			]
		},
		{
			"name":"monitorFrame",
			"primitives":[
				{
					"attributes":{
						"POSITION":29,
						"NORMAL":30,
						"TEXCOORD_0":31
					},
					"indices":32
				}
			]
		},
		{
			"name":"monitorScreen",
			"primitives":[
				{
					"attributes":{
						"POSITION":33,
						"NORMAL":34,
						"TEXCOORD_0":35
					},
					"indices":36,
					"material":3
				}
			]
		},
		{
			"name":"sky",
			"primitives":[
				{
					"attributes":{
						"POSITION":37,
						"NORMAL":38,
						"TEXCOORD_0":39
					},
					"indices":40,
					"material":4
				}
			]
		},
		{
			"name":"sun",
			"primitives":[
				{
					"attributes":{
						"POSITION":41,
						"NORMAL":42,
						"TEXCOORD_0":43
					},
					"indices":44,
					"material":5
				}
			]
		},
		{
			"name":"window",
			"primitives":[
				{
					"attributes":{
						"POSITION":45,
						"NORMAL":46,
						"TEXCOORD_0":47
					},
					"indices":48
				}
			]
		},
		{
			"name":"house",
			"primitives":[
				{
					"attributes":{
						"POSITION":49,
						"NORMAL":50,
						"TEXCOORD_0":51
					},
					"indices":52,
					"material":6
				}
			]
		}
	],
	"textures":[
		{
			"sampler":0,
			"source":0
		},
		{
			"sampler":0,
			"source":1
		},
		{
			"sampler":0,
			"source":2
		},
		{
			"sampler":0,
			"source":3
		},
		{
			"sampler":0,
			"source":4
		},
		{
			"sampler":0,
			"source":5
		},
		{
			"sampler":0,
			"source":6
		},
		{
			"sampler":0,
			"source":7
		}
	],
	"images":[
		{
			"mimeType":"image/jpeg",
			"name":"building_Base_color",
			"uri":"building_Base_color.jpg"
		},
		{
			"mimeType":"image/png",
			"name":"building_Roughness",
			"uri":"building_Roughness.png"
		},
		{
			"mimeType":"image/jpeg",
			"name":"chair_Base_color",
			"uri":"chair_Base_color.jpg"
		},
		{
			"mimeType":"image/png",
			"name":"chair_Roughness",
			"uri":"chair_Roughness.png"
		},
		{
			"mimeType":"image/jpeg",
			"name":"desk_Base_color",
			"uri":"desk_Base_color.jpg"
		},
		{
			"mimeType":"image/png",
			"name":"desk_Roughness",
			"uri":"desk_Roughness.png"
		},
		{
			"mimeType":"image/jpeg",
			"name":"house_Base_color",
			"uri":"house_Base_color.jpg"
		},
		{
			"mimeType":"image/png",
			"name":"house_Roughness",
			"uri":"house_Roughness.png"
		}
	],
	"accessors":[
		{
			"bufferView":0,
			"componentType":5126,
			"count":8384,
			"max":[
				1.8381140232086182,
				8.647398948669434,
				-0.8221840262413025
			],
			"min":[
				0.2399590015411377,
				7.049242973327637,
				-2.298959970474243
			],
			"type":"VEC3"
		},
		{
			"bufferView":1,
			"componentType":5126,
			"count":8384,
			"type":"VEC3"
		},
		{
			"bufferView":2,
			"componentType":5126,
			"count":8384,
			"type":"VEC2"
		},
		{
			"bufferView":3,
			"componentType":5123,
			"count":14772,
			"type":"SCALAR"
		},
		{
			"bufferView":4,
			"componentType":5126,
			"count":8384,
			"max":[
				1.8381140232086182,
				8.647398948669434,
				-0.8221840262413025
			],
			"min":[
				0.2399590015411377,
				7.049242973327637,
				-2.298959970474243
			],
			"type":"VEC3"
		},
		{
			"bufferView":5,
			"componentType":5126,
			"count":8384,
			"type":"VEC3"
		},
		{
			"bufferView":6,
			"componentType":5126,
			"count":8384,
			"type":"VEC2"
		},
		{
			"bufferView":7,
			"componentType":5126,
			"count":4824,
			"max":[
				0.2881266474723816,
				0.5464650392532349,
				0.25383907556533813
			],
			"min":[
				-0.259848952293396,
				-0.09537583589553833,
				-0.3333912789821625
			],
			"type":"VEC3"
		},
		{
			"bufferView":8,
			"componentType":5126,
			"count":4824,
			"type":"VEC3"
		},
		{
			"bufferView":9,
			"componentType":5126,
			"count":4824,
			"type":"VEC2"
		},
		{
			"bufferView":10,
			"componentType":5123,
			"count":23712,
			"type":"SCALAR"
		},
		{
			"bufferView":11,
			"componentType":5126,
			"count":6292,
			"max":[
				0.30227500200271606,
				0.5322964191436768,
				0.2714197337627411
			],
			"min":[
				-0.34810906648635864,
				0,
				-0.327678382396698
			],
			"type":"VEC3"
		},
		{
			"bufferView":12,
			"componentType":5126,
			"count":6292,
			"type":"VEC3"
		},
		{
			"bufferView":13,
			"componentType":5126,
			"count":6292,
			"type":"VEC2"
		},
		{
			"bufferView":14,
			"componentType":5123,
			"count":26970,
			"type":"SCALAR"
		},
		{
			"bufferView":15,
			"componentType":5126,
			"count":5605,
			"max":[
				1.1008119583129883,
				0.9480130076408386,
				-0.00021699999342672527
			],
			"min":[
				-0.2967270016670227,
				0.3465479910373688,
				-0.8909779787063599
			],
			"type":"VEC3"
		},
		{
			"bufferView":16,
			"componentType":5126,
			"count":5605,
			"type":"VEC3"
		},
		{
			"bufferView":17,
			"componentType":5126,
			"count":5605,
			"type":"VEC2"
		},
		{
			"bufferView":18,
			"componentType":5123,
			"count":19812,
			"type":"SCALAR"
		},
		{
			"bufferView":19,
			"componentType":5126,
			"count":60,
			"max":[
				0.044721249490976334,
				0.05000000074505806,
				0.04253200441598892
			],
			"min":[
				-0.044721249490976334,
				-0.05000000074505806,
				-0.04253200441598892
			],
			"type":"VEC3"
		},
		{
			"bufferView":20,
			"componentType":5126,
			"count":60,
			"type":"VEC3"
		},
		{
			"bufferView":21,
			"componentType":5126,
			"count":60,
			"type":"VEC2"
		},
		{
			"bufferView":22,
			"componentType":5123,
			"count":60,
			"type":"SCALAR"
		},
		{
			"bufferView":23,
			"componentType":5126,
			"count":60,
			"max":[
				0.044721249490976334,
				0.05000000074505806,
				0.04253200441598892
			],
			"min":[
				-0.044721249490976334,
				-0.05000000074505806,
				-0.04253200441598892
			],
			"type":"VEC3"
		},
		{
			"bufferView":24,
			"componentType":5126,
			"count":60,
			"type":"VEC3"
		},
		{
			"bufferView":25,
			"componentType":5126,
			"count":60,
			"type":"VEC2"
		},
		{
			"bufferView":26,
			"componentType":5126,
			"count":60,
			"max":[
				0.044721249490976334,
				0.05000000074505806,
				0.04253200441598892
			],
			"min":[
				-0.044721249490976334,
				-0.05000000074505806,
				-0.04253200441598892
			],
			"type":"VEC3"
		},
		{
			"bufferView":27,
			"componentType":5126,
			"count":60,
			"type":"VEC3"
		},
		{
			"bufferView":28,
			"componentType":5126,
			"count":60,
			"type":"VEC2"
		},
		{
			"bufferView":29,
			"componentType":5126,
			"count":600,
			"max":[
				0.402150422334671,
				0.23694391548633575,
				0.03975411504507065
			],
			"min":[
				-0.402150422334671,
				-0.3382100462913513,
				-0.12914599478244781
			],
			"type":"VEC3"
		},
		{
			"bufferView":30,
			"componentType":5126,
			"count":600,
			"type":"VEC3"
		},
		{
			"bufferView":31,
			"componentType":5126,
			"count":600,
			"type":"VEC2"
		},
		{
			"bufferView":32,
			"componentType":5123,
			"count":1236,
			"type":"SCALAR"
		},
		{
			"bufferView":33,
			"componentType":5126,
			"count":35,
			"max":[
				0.38952118158340454,
				0.22431468963623047,
				0.006918175145983696
			],
			"min":[
				-0.38952118158340454,
				-0.22431468963623047,
				0.006918175145983696
			],
			"type":"VEC3"
		},
		{
			"bufferView":34,
			"componentType":5126,
			"count":35,
			"type":"VEC3"
		},
		{
			"bufferView":35,
			"componentType":5126,
			"count":35,
			"type":"VEC2"
		},
		{
			"bufferView":36,
			"componentType":5123,
			"count":144,
			"type":"SCALAR"
		},
		{
			"bufferView":37,
			"componentType":5126,
			"count":4,
			"max":[
				299.2677307128906,
				0,
				181.7623291015625
			],
			"min":[
				-299.2677307128906,
				0,
				-181.7623291015625
			],
			"type":"VEC3"
		},
		{
			"bufferView":38,
			"componentType":5126,
			"count":4,
			"type":"VEC3"
		},
		{
			"bufferView":39,
			"componentType":5126,
			"count":4,
			"type":"VEC2"
		},
		{
			"bufferView":40,
			"componentType":5123,
			"count":6,
			"type":"SCALAR"
		},
		{
			"bufferView":41,
			"componentType":5126,
			"count":2141,
			"max":[
				2.0854241847991943,
				2.1072778701782227,
				2.0854239463806152
			],
			"min":[
				-2.085423469543457,
				-2.1072778701782227,
				-2.0854239463806152
			],
			"type":"VEC3"
		},
		{
			"bufferView":42,
			"componentType":5126,
			"count":2141,
			"type":"VEC3"
		},
		{
			"bufferView":43,
			"componentType":5126,
			"count":2141,
			"type":"VEC2"
		},
		{
			"bufferView":44,
			"componentType":5123,
			"count":11904,
			"type":"SCALAR"
		},
		{
			"bufferView":45,
			"componentType":5126,
			"count":552,
			"max":[
				0.5157696604728699,
				0.7682734727859497,
				0.036515455693006516
			],
			"min":[
				-0.5160254240036011,
				-0.7682793140411377,
				-0.03611734136939049
			],
			"type":"VEC3"
		},
		{
			"bufferView":46,
			"componentType":5126,
			"count":552,
			"type":"VEC3"
		},
		{
			"bufferView":47,
			"componentType":5126,
			"count":552,
			"type":"VEC2"
		},
		{
			"bufferView":48,
			"componentType":5123,
			"count":1644,
			"type":"SCALAR"
		},
		{
			"bufferView":49,
			"componentType":5126,
			"count":112,
			"max":[
				21.337709426879883,
				4.685482978820801,
				12.053489685058594
			],
			"min":[
				-21.975629806518555,
				-30.900720596313477,
				-19.74197006225586
			],
			"type":"VEC3"
		},
		{
			"bufferView":50,
			"componentType":5126,
			"count":112,
			"type":"VEC3"
		},
		{
			"bufferView":51,
			"componentType":5126,
			"count":112,
			"type":"VEC2"
		},
		{
			"bufferView":52,
			"componentType":5123,
			"count":264,
			"type":"SCALAR"
		},
		{
			"bufferView":53,
			"componentType":5126,
			"count":144,
			"max":[
				6
			],
			"min":[
				0.041666666666666664
			],
			"type":"SCALAR"
		},
		{
			"bufferView":54,
			"componentType":5126,
			"count":144,
			"type":"VEC3"
		},
		{
			"bufferView":55,
			"componentType":5126,
			"count":144,
			"type":"VEC3"
		},
		{
			"bufferView":56,
			"componentType":5126,
			"count":144,
			"type":"VEC4"
		}
	],
	"bufferViews":[
		{
			"buffer":0,
			"byteLength":100608,
			"byteOffset":0,
			"target":34962
		},
		{
			"buffer":0,
			"byteLength":100608,
			"byteOffset":100608,
			"target":34962
		},
		{
			"buffer":0,
			"byteLength":67072,
			"byteOffset":201216,
			"target":34962
		},
		{
			"buffer":0,
			"byteLength":29544,
			"byteOffset":268288,
			"target":34963
		},
		{
			"buffer":0,
			"byteLength":100608,
			"byteOffset":297832,
			"target":34962
		},
		{
			"buffer":0,
			"byteLength":100608,
			"byteOffset":398440,
			"target":34962
		},
		{
			"buffer":0,
			"byteLength":67072,
			"byteOffset":499048,
			"target":34962
		},
		{
			"buffer":0,
			"byteLength":57888,
			"byteOffset":566120,
			"target":34962
		},
		{
			"buffer":0,
			"byteLength":57888,
			"byteOffset":624008,
			"target":34962
		},
		{
			"buffer":0,
			"byteLength":38592,
			"byteOffset":681896,
			"target":34962
		},
		{
			"buffer":0,
			"byteLength":47424,
			"byteOffset":720488,
			"target":34963
		},
		{
			"buffer":0,
			"byteLength":75504,
			"byteOffset":767912,
			"target":34962
		},
		{
			"buffer":0,
			"byteLength":75504,
			"byteOffset":843416,
			"target":34962
		},
		{
			"buffer":0,
			"byteLength":50336,
			"byteOffset":918920,
			"target":34962
		},
		{
			"buffer":0,
			"byteLength":53940,
			"byteOffset":969256,
			"target":34963
		},
		{
			"buffer":0,
			"byteLength":67260,
			"byteOffset":1023196,
			"target":34962
		},
		{
			"buffer":0,
			"byteLength":67260,
			"byteOffset":1090456,
			"target":34962
		},
		{
			"buffer":0,
			"byteLength":44840,
			"byteOffset":1157716,
			"target":34962
		},
		{
			"buffer":0,
			"byteLength":39624,
			"byteOffset":1202556,
			"target":34963
		},
		{
			"buffer":0,
			"byteLength":720,
			"byteOffset":1242180,
			"target":34962
		},
		{
			"buffer":0,
			"byteLength":720,
			"byteOffset":1242900,
			"target":34962
		},
		{
			"buffer":0,
			"byteLength":480,
			"byteOffset":1243620,
			"target":34962
		},
		{
			"buffer":0,
			"byteLength":120,
			"byteOffset":1244100,
			"target":34963
		},
		{
			"buffer":0,
			"byteLength":720,
			"byteOffset":1244220,
			"target":34962
		},
		{
			"buffer":0,
			"byteLength":720,
			"byteOffset":1244940,
			"target":34962
		},
		{
			"buffer":0,
			"byteLength":480,
			"byteOffset":1245660,
			"target":34962
		},
		{
			"buffer":0,
			"byteLength":720,
			"byteOffset":1246140,
			"target":34962
		},
		{
			"buffer":0,
			"byteLength":720,
			"byteOffset":1246860,
			"target":34962
		},
		{
			"buffer":0,
			"byteLength":480,
			"byteOffset":1247580,
			"target":34962
		},
		{
			"buffer":0,
			"byteLength":7200,
			"byteOffset":1248060,
			"target":34962
		},
		{
			"buffer":0,
			"byteLength":7200,
			"byteOffset":1255260,
			"target":34962
		},
		{
			"buffer":0,
			"byteLength":4800,
			"byteOffset":1262460,
			"target":34962
		},
		{
			"buffer":0,
			"byteLength":2472,
			"byteOffset":1267260,
			"target":34963
		},
		{
			"buffer":0,
			"byteLength":420,
			"byteOffset":1269732,
			"target":34962
		},
		{
			"buffer":0,
			"byteLength":420,
			"byteOffset":1270152,
			"target":34962
		},
		{
			"buffer":0,
			"byteLength":280,
			"byteOffset":1270572,
			"target":34962
		},
		{
			"buffer":0,
			"byteLength":288,
			"byteOffset":1270852,
			"target":34963
		},
		{
			"buffer":0,
			"byteLength":48,
			"byteOffset":1271140,
			"target":34962
		},
		{
			"buffer":0,
			"byteLength":48,
			"byteOffset":1271188,
			"target":34962
		},
		{
			"buffer":0,
			"byteLength":32,
			"byteOffset":1271236,
			"target":34962
		},
		{
			"buffer":0,
			"byteLength":12,
			"byteOffset":1271268,
			"target":34963
		},
		{
			"buffer":0,
			"byteLength":25692,
			"byteOffset":1271280,
			"target":34962
		},
		{
			"buffer":0,
			"byteLength":25692,
			"byteOffset":1296972,
			"target":34962
		},
		{
			"buffer":0,
			"byteLength":17128,
			"byteOffset":1322664,
			"target":34962
		},
		{
			"buffer":0,
			"byteLength":23808,
			"byteOffset":1339792,
			"target":34963
		},
		{
			"buffer":0,
			"byteLength":6624,
			"byteOffset":1363600,
			"target":34962
		},
		{
			"buffer":0,
			"byteLength":6624,
			"byteOffset":1370224,
			"target":34962
		},
		{
			"buffer":0,
			"byteLength":4416,
			"byteOffset":1376848,
			"target":34962
		},
		{
			"buffer":0,
			"byteLength":3288,
			"byteOffset":1381264,
			"target":34963
		},
		{
			"buffer":0,
			"byteLength":1344,
			"byteOffset":1384552,
			"target":34962
		},
		{
			"buffer":0,
			"byteLength":1344,
			"byteOffset":1385896,
			"target":34962
		},
		{
			"buffer":0,
			"byteLength":896,
			"byteOffset":1387240,
			"target":34962
		},
		{
			"buffer":0,
			"byteLength":528,
			"byteOffset":1388136,
			"target":34963
		},
		{
			"buffer":0,
			"byteLength":576,
			"byteOffset":1388664
		},
		{
			"buffer":0,
			"byteLength":1728,
			"byteOffset":1389240
		},
		{
			"buffer":0,
			"byteLength":1728,
			"byteOffset":1390968
		},
		{
			"buffer":0,
			"byteLength":2304,
			"byteOffset":1392696
		}
	],
	"samplers":[
		{
			"magFilter":9729,
			"minFilter":9987
		}
	],
	"buffers":[
		{
			"byteLength":1395000,
			"uri":"myhome_camFixed.bin"
		}
	]
}
