{
	"asset":{
		"generator":"Khronos glTF Blender I/O v3.6.27",
		"version":"2.0"
	},
	"extensionsUsed":[
		"KHR_materials_emissive_strength",
		"KHR_materials_specular",
		"KHR_materials_ior"
	],
	"scene":0,
	"scenes":[
		{
			"name":"Scene",
			"nodes":[
				0,
				1,
				2,
				3,
				4,
				5,
				6,
				7,
				8,
				9,
				10
			]
		}
	],
	"nodes":[
		{
			"camera":0,
			"name":"Camera",
			"rotation":[
				0,
				-1,
				0,
				5.3968395067282e-15
			],
			"translation":[
				0,
				1.229428768157959,
				-20.681137084960938
			]
		},
		{
			"mesh":0,
			"name":"chairBase",
			"translation":[
				-1.625483512878418,
				0,
				0
			]
		},
		{
			"mesh":1,
			"name":"chairUp",
			"rotation":[
				0,
				0.3186584711074829,
				0,
				0.947869598865509
			],
			"translation":[
				-1.625483512878418,
				0.5322962999343872,
				0
			]
		},
		{
			"mesh":2,
			"name":"monitorFrame",
			"rotation":[
				0,
				-1,
				0,
				7.549790126404332e-08
			],
			"translation":[
				0.4287966787815094,
				1.2208728790283203,
				0.7052990198135376
			]
		},
		{
			"mesh":3,
			"name":"monitorScreen",
			"rotation":[
				0,
				-1,
				0,
				7.549790126404332e-08
			],
			"translation":[
				0.4287966787815094,
				1.2208728790283203,
				0.7052990198135376
			]
		},
		{
			"mesh":4,
			"name":"sky",
			"rotation":[
				0.7071068286895752,
				0,
				0,
				0.7071068286895752
			],
			"translation":[
				0,
				5.550042629241943,
				96.24665832519531
			]
		},
		{
			"mesh":5,
			"name":"sun",
			"translation":[
				0,
				6.5,
				79.9395523071289
			]
		},
		{
			"mesh":6,
			"name":"deskuv",
			"rotation":[
				0.7071068286895752,
				0,
				0,
				0.7071068286895752
			]
		},
		{
			"mesh":7,
			"name":"window",
			"translation":[
				0.13955959677696228,
				2.0111207962036133,
				4.658856391906738
			]
		},
		{
			"mesh":8,
			"name":"house",
			"rotation":[
				0.7071068286895752,
				0,
				0,
				0.7071068286895752
			]
		},
		{
			"mesh":9,
			"name":"building",
			"rotation":[
				0.7071068286895752,
				0,
				0,
				0.7071068286895752
			]
		}
	],
	"cameras":[
		{
			"name":"Camera.001",
			"perspective":{
				"aspectRatio":1.7777777777777777,
				"yfov":0.39959652046304894,
				"zfar":1000,
				"znear":0.10000000149011612
			},
			"type":"perspective"
		}
	],
	"animations":[
		{
			"channels":[
				{
					"sampler":0,
					"target":{
						"node":0,
						"path":"translation"
					}
				}
			],
			"name":"CameraAction.001",
			"samplers":[
				{
					"input":40,
					"interpolation":"LINEAR",
					"output":41
				}
			]
		},
		{
			"channels":[
				{
					"sampler":0,
					"target":{
						"node":1,
						"path":"translation"
					}
				},
				{
					"sampler":1,
					"target":{
						"node":1,
						"path":"rotation"
					}
				},
				{
					"sampler":2,
					"target":{
						"node":1,
						"path":"scale"
					}
				}
			],
			"name":"Action",
			"samplers":[
				{
					"input":42,
					"interpolation":"LINEAR",
					"output":43
				},
				{
					"input":44,
					"interpolation":"STEP",
					"output":45
				},
				{
					"input":44,
					"interpolation":"STEP",
					"output":46
				}
			]
		},
		{
			"channels":[
				{
					"sampler":0,
					"target":{
						"node":2,
						"path":"translation"
					}
				},
				{
					"sampler":1,
					"target":{
						"node":2,
						"path":"rotation"
					}
				},
				{
					"sampler":2,
					"target":{
						"node":2,
						"path":"scale"
					}
				}
			],
			"name":"Action.001",
			"samplers":[
				{
					"input":42,
					"interpolation":"LINEAR",
					"output":47
				},
				{
					"input":42,
					"interpolation":"LINEAR",
					"output":48
				},
				{
					"input":44,
					"interpolation":"STEP",
					"output":49
				}
			]
		}
	],
	"materials":[
		{
			"doubleSided":true,
			"emissiveFactor":[
				1,
				0.985423743724823,
				0.6165658235549927
			],
			"extensions":{
				"KHR_materials_emissive_strength":{
					"emissiveStrength":2
				}
			},
			"name":"monitor_screen",
			"pbrMetallicRoughness":{
				"baseColorFactor":[
					0,
					0,
					0,
					1
				]
			}
		},
		{
			"doubleSided":true,
			"emissiveFactor":[
				0.1642267405986786,
				0.1948574036359787,
				0.6032224893569946
			],
			"name":"sky",
			"pbrMetallicRoughness":{
				"baseColorFactor":[
					0,
					0,
					0,
					1
				]
			}
		},
		{
			"doubleSided":true,
			"emissiveFactor":[
				1,
				0.4504251778125763,
				0.38110092282295227
			],
			"name":"sunParticles",
			"pbrMetallicRoughness":{
				"baseColorFactor":[
					0,
					0,
					0,
					1
				]
			}
		},
		{
			"doubleSided":true,
			"extensions":{
				"KHR_materials_specular":{
					"specularColorFactor":[
						0,
						0,
						0
					]
				},
				"KHR_materials_ior":{
					"ior":1.4500000476837158
				}
			},
			"name":"DefaultMaterial",
			"pbrMetallicRoughness":{
				"baseColorFactor":[
					0.800000011920929,
					0.800000011920929,
					0.800000011920929,
					1
				],
				"metallicFactor":0
			}
		},
		{
			"doubleSided":true,
			"name":"building",
			"pbrMetallicRoughness":{
				"baseColorFactor":[
					0.08887901902198792,
					0.10588090121746063,
					0.5492658615112305,
					1
				],
				"metallicFactor":0,
				"roughnessFactor":0.5
			}
		}
	],
	"meshes":[
		{
			"name":"SwivelChair",
			"primitives":[
				{
					"attributes":{
						"POSITION":0,
						"NORMAL":1,
						"TEXCOORD_0":2
					},
					"indices":3
				}
			]
		},
		{
			"name":"SwivelChair.001",
			"primitives":[
				{
					"attributes":{
						"POSITION":4,
						"NORMAL":5,
						"TEXCOORD_0":6
					},
					"indices":7
				}
			]
		},
		{
			"name":"Cube.001",
			"primitives":[
				{
					"attributes":{
						"POSITION":8,
						"NORMAL":9,
						"TEXCOORD_0":10
					},
					"indices":11
				}
			]
		},
		{
			"name":"Cube.007",
			"primitives":[
				{
					"attributes":{
						"POSITION":12,
						"NORMAL":13,
						"TEXCOORD_0":14
					},
					"indices":15,
					"material":0
				}
			]
		},
		{
			"name":"Plane",
			"primitives":[
				{
					"attributes":{
						"POSITION":16,
						"NORMAL":17,
						"TEXCOORD_0":18
					},
					"indices":19,
					"material":1
				}
			]
		},
		{
			"name":"Sphere",
			"primitives":[
				{
					"attributes":{
						"POSITION":20,
						"NORMAL":21,
						"TEXCOORD_0":22
					},
					"indices":23,
					"material":2
				}
			]
		},
		{
			"name":"deskuv",
			"primitives":[
				{
					"attributes":{
						"POSITION":24,
						"NORMAL":25,
						"TEXCOORD_0":26
					},
					"indices":27,
					"material":3
				}
			]
		},
		{
			"name":"Mesh.007",
			"primitives":[
				{
					"attributes":{
						"POSITION":28,
						"NORMAL":29,
						"TEXCOORD_0":30
					},
					"indices":31
				}
			]
		},
		{
			"name":"house",
			"primitives":[
				{
					"attributes":{
						"POSITION":32,
						"NORMAL":33,
						"TEXCOORD_0":34
					},
					"indices":35
				}
			]
		},
		{
			"name":"building",
			"primitives":[
				{
					"attributes":{
						"POSITION":36,
						"NORMAL":37,
						"TEXCOORD_0":38
					},
					"indices":39,
					"material":4
				}
			]
		}
	],
	"accessors":[
		{
			"bufferView":0,
			"componentType":5126,
			"count":6292,
			"max":[
				0.30227500200271606,
				0.5322964191436768,
				0.2714197337627411
			],
			"min":[
				-0.34810906648635864,
				0,
				-0.327678382396698
			],
			"type":"VEC3"
		},
		{
			"bufferView":1,
			"componentType":5126,
			"count":6292,
			"type":"VEC3"
		},
		{
			"bufferView":2,
			"componentType":5126,
			"count":6292,
			"type":"VEC2"
		},
		{
			"bufferView":3,
			"componentType":5123,
			"count":26970,
			"type":"SCALAR"
		},
		{
			"bufferView":4,
			"componentType":5126,
			"count":4824,
			"max":[
				0.2881266474723816,
				0.5464650392532349,
				0.25383907556533813
			],
			"min":[
				-0.259848952293396,
				-0.09537583589553833,
				-0.3333912789821625
			],
			"type":"VEC3"
		},
		{
			"bufferView":5,
			"componentType":5126,
			"count":4824,
			"type":"VEC3"
		},
		{
			"bufferView":6,
			"componentType":5126,
			"count":4824,
			"type":"VEC2"
		},
		{
			"bufferView":7,
			"componentType":5123,
			"count":23712,
			"type":"SCALAR"
		},
		{
			"bufferView":8,
			"componentType":5126,
			"count":600,
			"max":[
				0.402150422334671,
				0.23694391548633575,
				0.03975411504507065
			],
			"min":[
				-0.402150422334671,
				-0.3382100462913513,
				-0.12914599478244781
			],
			"type":"VEC3"
		},
		{
			"bufferView":9,
			"componentType":5126,
			"count":600,
			"type":"VEC3"
		},
		{
			"bufferView":10,
			"componentType":5126,
			"count":600,
			"type":"VEC2"
		},
		{
			"bufferView":11,
			"componentType":5123,
			"count":1236,
			"type":"SCALAR"
		},
		{
			"bufferView":12,
			"componentType":5126,
			"count":35,
			"max":[
				0.38952118158340454,
				0.22431468963623047,
				0.006918175145983696
			],
			"min":[
				-0.38952118158340454,
				-0.22431468963623047,
				0.006918175145983696
			],
			"type":"VEC3"
		},
		{
			"bufferView":13,
			"componentType":5126,
			"count":35,
			"type":"VEC3"
		},
		{
			"bufferView":14,
			"componentType":5126,
			"count":35,
			"type":"VEC2"
		},
		{
			"bufferView":15,
			"componentType":5123,
			"count":144,
			"type":"SCALAR"
		},
		{
			"bufferView":16,
			"componentType":5126,
			"count":4,
			"max":[
				299.2677307128906,
				0,
				181.7623291015625
			],
			"min":[
				-299.2677307128906,
				0,
				-181.7623291015625
			],
			"type":"VEC3"
		},
		{
			"bufferView":17,
			"componentType":5126,
			"count":4,
			"type":"VEC3"
		},
		{
			"bufferView":18,
			"componentType":5126,
			"count":4,
			"type":"VEC2"
		},
		{
			"bufferView":19,
			"componentType":5123,
			"count":6,
			"type":"SCALAR"
		},
		{
			"bufferView":20,
			"componentType":5126,
			"count":2141,
			"max":[
				2.0854241847991943,
				2.1072778701782227,
				2.0854239463806152
			],
			"min":[
				-2.085423469543457,
				-2.1072778701782227,
				-2.0854239463806152
			],
			"type":"VEC3"
		},
		{
			"bufferView":21,
			"componentType":5126,
			"count":2141,
			"type":"VEC3"
		},
		{
			"bufferView":22,
			"componentType":5126,
			"count":2141,
			"type":"VEC2"
		},
		{
			"bufferView":23,
			"componentType":5123,
			"count":11904,
			"type":"SCALAR"
		},
		{
			"bufferView":24,
			"componentType":5126,
			"count":5605,
			"max":[
				1.1008119583129883,
				0.9480130076408386,
				-0.00021699999342672527
			],
			"min":[
				-0.2967270016670227,
				0.3465479910373688,
				-0.8909779787063599
			],
			"type":"VEC3"
		},
		{
			"bufferView":25,
			"componentType":5126,
			"count":5605,
			"type":"VEC3"
		},
		{
			"bufferView":26,
			"componentType":5126,
			"count":5605,
			"type":"VEC2"
		},
		{
			"bufferView":27,
			"componentType":5123,
			"count":19812,
			"type":"SCALAR"
		},
		{
			"bufferView":28,
			"componentType":5126,
			"count":552,
			"max":[
				0.5157696604728699,
				0.7682734727859497,
				0.036515455693006516
			],
			"min":[
				-0.5160254240036011,
				-0.7682793140411377,
				-0.03611734136939049
			],
			"type":"VEC3"
		},
		{
			"bufferView":29,
			"componentType":5126,
			"count":552,
			"type":"VEC3"
		},
		{
			"bufferView":30,
			"componentType":5126,
			"count":552,
			"type":"VEC2"
		},
		{
			"bufferView":31,
			"componentType":5123,
			"count":1644,
			"type":"SCALAR"
		},
		{
			"bufferView":32,
			"componentType":5126,
			"count":112,
			"max":[
				21.337709426879883,
				4.685482978820801,
				12.053489685058594
			],
			"min":[
				-21.975629806518555,
				-30.900720596313477,
				-19.74197006225586
			],
			"type":"VEC3"
		},
		{
			"bufferView":33,
			"componentType":5126,
			"count":112,
			"type":"VEC3"
		},
		{
			"bufferView":34,
			"componentType":5126,
			"count":112,
			"type":"VEC2"
		},
		{
			"bufferView":35,
			"componentType":5123,
			"count":264,
			"type":"SCALAR"
		},
		{
			"bufferView":36,
			"componentType":5126,
			"count":8384,
			"max":[
				1.8381140232086182,
				8.647398948669434,
				-0.8221840262413025
			],
			"min":[
				0.2399590015411377,
				7.049242973327637,
				-2.298959970474243
			],
			"type":"VEC3"
		},
		{
			"bufferView":37,
			"componentType":5126,
			"count":8384,
			"type":"VEC3"
		},
		{
			"bufferView":38,
			"componentType":5126,
			"count":8384,
			"type":"VEC2"
		},
		{
			"bufferView":39,
			"componentType":5123,
			"count":14772,
			"type":"SCALAR"
		},
		{
			"bufferView":40,
			"componentType":5126,
			"count":144,
			"max":[
				6
			],
			"min":[
				0.041666666666666664
			],
			"type":"SCALAR"
		},
		{
			"bufferView":41,
			"componentType":5126,
			"count":144,
			"type":"VEC3"
		},
		{
			"bufferView":42,
			"componentType":5126,
			"count":201,
			"max":[
				8.333333333333334
			],
			"min":[
				0
			],
			"type":"SCALAR"
		},
		{
			"bufferView":43,
			"componentType":5126,
			"count":201,
			"type":"VEC3"
		},
		{
			"bufferView":44,
			"componentType":5126,
			"count":2,
			"max":[
				8.333333333333334
			],
			"min":[
				0
			],
			"type":"SCALAR"
		},
		{
			"bufferView":45,
			"componentType":5126,
			"count":2,
			"type":"VEC4"
		},
		{
			"bufferView":46,
			"componentType":5126,
			"count":2,
			"type":"VEC3"
		},
		{
			"bufferView":47,
			"componentType":5126,
			"count":201,
			"type":"VEC3"
		},
		{
			"bufferView":48,
			"componentType":5126,
			"count":201,
			"type":"VEC4"
		},
		{
			"bufferView":49,
			"componentType":5126,
			"count":2,
			"type":"VEC3"
		}
	],
	"bufferViews":[
		{
			"buffer":0,
			"byteLength":75504,
			"byteOffset":0,
			"target":34962
		},
		{
			"buffer":0,
			"byteLength":75504,
			"byteOffset":75504,
			"target":34962
		},
		{
			"buffer":0,
			"byteLength":50336,
			"byteOffset":151008,
			"target":34962
		},
		{
			"buffer":0,
			"byteLength":53940,
			"byteOffset":201344,
			"target":34963
		},
		{
			"buffer":0,
			"byteLength":57888,
			"byteOffset":255284,
			"target":34962
		},
		{
			"buffer":0,
			"byteLength":57888,
			"byteOffset":313172,
			"target":34962
		},
		{
			"buffer":0,
			"byteLength":38592,
			"byteOffset":371060,
			"target":34962
		},
		{
			"buffer":0,
			"byteLength":47424,
			"byteOffset":409652,
			"target":34963
		},
		{
			"buffer":0,
			"byteLength":7200,
			"byteOffset":457076,
			"target":34962
		},
		{
			"buffer":0,
			"byteLength":7200,
			"byteOffset":464276,
			"target":34962
		},
		{
			"buffer":0,
			"byteLength":4800,
			"byteOffset":471476,
			"target":34962
		},
		{
			"buffer":0,
			"byteLength":2472,
			"byteOffset":476276,
			"target":34963
		},
		{
			"buffer":0,
			"byteLength":420,
			"byteOffset":478748,
			"target":34962
		},
		{
			"buffer":0,
			"byteLength":420,
			"byteOffset":479168,
			"target":34962
		},
		{
			"buffer":0,
			"byteLength":280,
			"byteOffset":479588,
			"target":34962
		},
		{
			"buffer":0,
			"byteLength":288,
			"byteOffset":479868,
			"target":34963
		},
		{
			"buffer":0,
			"byteLength":48,
			"byteOffset":480156,
			"target":34962
		},
		{
			"buffer":0,
			"byteLength":48,
			"byteOffset":480204,
			"target":34962
		},
		{
			"buffer":0,
			"byteLength":32,
			"byteOffset":480252,
			"target":34962
		},
		{
			"buffer":0,
			"byteLength":12,
			"byteOffset":480284,
			"target":34963
		},
		{
			"buffer":0,
			"byteLength":25692,
			"byteOffset":480296,
			"target":34962
		},
		{
			"buffer":0,
			"byteLength":25692,
			"byteOffset":505988,
			"target":34962
		},
		{
			"buffer":0,
			"byteLength":17128,
			"byteOffset":531680,
			"target":34962
		},
		{
			"buffer":0,
			"byteLength":23808,
			"byteOffset":548808,
			"target":34963
		},
		{
			"buffer":0,
			"byteLength":67260,
			"byteOffset":572616,
			"target":34962
		},
		{
			"buffer":0,
			"byteLength":67260,
			"byteOffset":639876,
			"target":34962
		},
		{
			"buffer":0,
			"byteLength":44840,
			"byteOffset":707136,
			"target":34962
		},
		{
			"buffer":0,
			"byteLength":39624,
			"byteOffset":751976,
			"target":34963
		},
		{
			"buffer":0,
			"byteLength":6624,
			"byteOffset":791600,
			"target":34962
		},
		{
			"buffer":0,
			"byteLength":6624,
			"byteOffset":798224,
			"target":34962
		},
		{
			"buffer":0,
			"byteLength":4416,
			"byteOffset":804848,
			"target":34962
		},
		{
			"buffer":0,
			"byteLength":3288,
			"byteOffset":809264,
			"target":34963
		},
		{
			"buffer":0,
			"byteLength":1344,
			"byteOffset":812552,
			"target":34962
		},
		{
			"buffer":0,
			"byteLength":1344,
			"byteOffset":813896,
			"target":34962
		},
		{
			"buffer":0,
			"byteLength":896,
			"byteOffset":815240,
			"target":34962
		},
		{
			"buffer":0,
			"byteLength":528,
			"byteOffset":816136,
			"target":34963
		},
		{
			"buffer":0,
			"byteLength":100608,
			"byteOffset":816664,
			"target":34962
		},
		{
			"buffer":0,
			"byteLength":100608,
			"byteOffset":917272,
			"target":34962
		},
		{
			"buffer":0,
			"byteLength":67072,
			"byteOffset":1017880,
			"target":34962
		},
		{
			"buffer":0,
			"byteLength":29544,
			"byteOffset":1084952,
			"target":34963
		},
		{
			"buffer":0,
			"byteLength":576,
			"byteOffset":1114496
		},
		{
			"buffer":0,
			"byteLength":1728,
			"byteOffset":1115072
		},
		{
			"buffer":0,
			"byteLength":804,
			"byteOffset":1116800
		},
		{
			"buffer":0,
			"byteLength":2412,
			"byteOffset":1117604
		},
		{
			"buffer":0,
			"byteLength":8,
			"byteOffset":1120016
		},
		{
			"buffer":0,
			"byteLength":32,
			"byteOffset":1120024
		},
		{
			"buffer":0,
			"byteLength":24,
			"byteOffset":1120056
		},
		{
			"buffer":0,
			"byteLength":2412,
			"byteOffset":1120080
		},
		{
			"buffer":0,
			"byteLength":3216,
			"byteOffset":1122492
		},
		{
			"buffer":0,
			"byteLength":24,
			"byteOffset":1125708
		}
	],
	"buffers":[
		{
			"byteLength":1125732,
			"uri":"myhome_export.bin"
		}
	]
}
